<?xml version="1.0" encoding="UTF-8" standalone="no"?>
<svg
   xmlns:dc="http://purl.org/dc/elements/1.1/"
   xmlns:cc="http://creativecommons.org/ns#"
   xmlns:rdf="http://www.w3.org/1999/02/22-rdf-syntax-ns#"
   xmlns:svg="http://www.w3.org/2000/svg"
   xmlns="http://www.w3.org/2000/svg"
   xmlns:sodipodi="http://sodipodi.sourceforge.net/DTD/sodipodi-0.dtd"
   xmlns:inkscape="http://www.inkscape.org/namespaces/inkscape"
   version="1.0"
   width="1619.000000pt"
   height="167.000000pt"
   viewBox="0 0 1619.000000 167.000000"
   preserveAspectRatio="xMidYMid meet"
   id="svg2"
   inkscape:version="0.48.5 r10040"
   sodipodi:docname="acc_napis.svg">
  <defs
     id="defs38" />
  <sodipodi:namedview
     pagecolor="#ffffff"
     bordercolor="#666666"
     borderopacity="1"
     objecttolerance="10"
     gridtolerance="10"
     guidetolerance="10"
     inkscape:pageopacity="0"
     inkscape:pageshadow="2"
     inkscape:window-width="1920"
     inkscape:window-height="1027"
     id="namedview36"
     showgrid="false"
     inkscape:zoom="0.49056352"
     inkscape:cx="1084.3079"
     inkscape:cy="55.054534"
     inkscape:window-x="-8"
     inkscape:window-y="-8"
     inkscape:window-maximized="1"
     inkscape:current-layer="svg2" />
  <metadata
     id="metadata4">
Created by potrace 1.11, written by Peter Selinger 2001-2013
<rdf:RDF>
  <cc:Work
     rdf:about="">
    <dc:format>image/svg+xml</dc:format>
    <dc:type
       rdf:resource="http://purl.org/dc/dcmitype/StillImage" />
  </cc:Work>
</rdf:RDF>
</metadata>
  <g
     transform="translate(0.000000,167.000000) scale(0.100000,-0.100000)"
     fill="#000000"
     stroke="none"
     id="g6">
    <path
       d="M8130 1659 c-88 -35 -127 -146 -77 -219 37 -55 72 -75 132 -75 60 0 95 20 133 75 77 114 -57 271 -188 219z"
       id="path8"
       style="fill:#0096ff;fill-opacity:1;opacity:0.99000000000000021" />
    <path
       d="M7460 1316 l0 -314 -59 59 c-88 88 -165 121 -295 127 -178 8 -310 -42 -431 -163 -125 -123 -172 -258 -162 -459 8 -182 58 -296 178 -414 195 -192 532 -200 714 -18 l55 55 0 -85 0 -84 120 0 120 0 0 805 0 805 -120 0 -120 0 0 -314z m-201 -370 c70 -36 128 -97 165 -176 29 -60 31 -73 31 -175 0 -100 -3 -116 -28 -170 -34 -72 -94 -137 -162 -173 -45 -24 -61 -27 -150 -27 -91 0 -105 3 -158 29 -146 75 -221 227 -196 402 12 89 38 143 95 204 86 92 157 122 275 116 56 -3 89 -11 128 -30z"
       id="path10"
       style="fill:#0096ff;fill-opacity:1;opacity:0.99000000000000021" />
    <path
       d="M360 808 c-179 -402 -330 -744 -337 -760 l-12 -28 138 0 138 0 74 168 75 167 389 0 389 0 75 -168 74 -167 138 0 138 0 -12 28 c-7 16 -158 358 -337 760 l-325 731 -140 0 -140 0 -325 -731z m608 100 c73 -163 132 -299 132 -302 0 -3 -124 -6 -275 -6 -151 0 -275 2 -275 5 0 3 55 127 121 277 67 150 128 288 136 307 8 18 18 30 22 25 4 -5 67 -143 139 -306z"
       id="path12"
       style="fill:#0096ff;fill-opacity:1;opacity:0.99000000000000021" />
    <path
       d="M8720 1360 l0 -179 -72 -3 -73 -3 -3 -97 -3 -98 75 0 75 0 3 -347 3 -348 28 -61 c95 -206 340 -281 548 -167 88 48 89 50 34 146 l-49 84 -42 -32 c-96 -74 -224 -45 -263 58 -7 18 -11 146 -11 348 l0 319 150 0 150 0 0 100 0 100 -150 0 -150 0 0 180 0 180 -125 0 -125 0 0 -180z"
       id="path14"
       style="fill:#0096ff;fill-opacity:1;opacity:0.99000000000000021" />
    <path
       d="M2192 1170 c-210 -56 -369 -207 -428 -405 -22 -74 -25 -245 -5 -325 36 -145 146 -288 281 -362 238 -132 534 -91 756 104 l34 30 -71 79 -70 78 -52 -40 c-28 -22 -73 -52 -100 -66 -187 -94 -424 -9 -515 185 -24 50 -27 70 -27 157 0 89 3 106 28 156 70 143 250 231 408 200 70 -14 159 -55 208 -97 37 -31 29 -37 120 76 l61 75 -32 27 c-61 52 -127 90 -200 116 -101 35 -288 41 -396 12z"
       id="path16"
       style="fill:#0096ff;fill-opacity:1;opacity:0.99000000000000021" />
    <path
       d="M3470 1175 c-202 -49 -364 -192 -431 -381 -29 -83 -37 -255 -15 -347 48 -204 199 -359 411 -423 42 -13 93 -18 170 -18 124 0 218 22 315 76 69 38 170 117 170 132 -1 6 -32 44 -71 85 l-69 73 -44 -40 c-83 -77 -205 -119 -305 -107 -100 13 -160 42 -232 114 -82 82 -110 149 -112 261 -1 114 22 171 102 251 86 86 149 112 271 112 100 0 166 -22 255 -84 32 -22 61 -37 65 -32 3 4 35 43 71 87 l64 79 -42 37 c-57 51 -166 106 -244 125 -79 18 -254 18 -329 0z"
       id="path18"
       style="fill:#0096ff;fill-opacity:1;opacity:0.99000000000000021" />
    <path
       d="M4847 1166 c-31 -13 -69 -32 -84 -41 -45 -30 -112 -96 -135 -134 l-23 -36 -5 110 -5 110 -122 3 -123 3 0 -581 0 -580 125 0 125 0 0 290 c0 305 6 360 46 445 52 112 145 177 269 190 l65 7 0 119 0 119 -37 0 c-21 0 -64 -11 -96 -24z"
       id="path20"
       style="fill:#0096ff;fill-opacity:1;opacity:0.99000000000000021" />
    <path
       d="M5575 1171 c-155 -45 -300 -161 -363 -291 -59 -121 -78 -290 -47 -433 46 -219 226 -390 456 -434 197 -37 434 22 565 140 l48 43 -71 75 -72 74 -33 -31 c-76 -73 -204 -111 -335 -101 -140 11 -281 103 -311 205 -24 79 -65 72 443 72 l455 0 0 128 c0 82 -5 149 -15 187 -48 181 -200 323 -396 370 -87 20 -247 18 -324 -4z m293 -205 c60 -21 117 -63 148 -107 26 -38 59 -153 48 -171 -3 -4 -154 -8 -336 -8 l-331 0 5 50 c10 97 105 200 218 235 60 18 197 19 248 1z"
       id="path22"
       style="fill:#0096ff;fill-opacity:1;opacity:0.99000000000000021" />
    <path
       d="M9946 1174 c-106 -26 -184 -71 -271 -159 -128 -127 -175 -240 -175 -417 0 -206 82 -366 249 -485 106 -77 202 -106 351 -107 67 -1 138 5 170 13 202 50 372 209 432 406 39 125 28 297 -27 420 -48 109 -164 229 -278 287 -108 54 -318 74 -451 42z m311 -226 c167 -62 262 -274 209 -464 -44 -155 -163 -250 -326 -261 -196 -14 -352 103 -390 292 -23 110 2 231 65 317 95 129 278 177 442 116z"
       id="path24"
       style="fill:#0096ff;fill-opacity:1;opacity:0.99000000000000021" />
    <path
       d="M11992 1170 c-101 -27 -185 -74 -264 -148 -128 -121 -180 -241 -180 -422 0 -161 34 -267 122 -379 154 -194 434 -269 686 -182 84 29 198 97 247 149 l28 29 -71 76 -71 76 -62 -50 c-84 -67 -151 -92 -252 -92 -59 0 -95 6 -138 22 -306 119 -332 542 -40 678 138 64 290 48 418 -45 22 -15 45 -31 51 -35 7 -4 41 28 85 80 l73 86 -45 39 c-55 47 -165 103 -244 123 -84 21 -251 19 -343 -5z"
       id="path26"
       style="fill:#002a76;fill-opacity:1" />
    <path
       d="M13238 1175 c-106 -27 -187 -74 -274 -160 -88 -87 -142 -179 -163 -283 -16 -76 -14 -218 4 -286 52 -198 213 -360 420 -422 74 -22 255 -25 335 -5 203 49 370 207 433 406 30 98 30 252 0 350 -23 73 -75 162 -132 228 -46 52 -167 130 -242 157 -83 29 -294 37 -381 15z m309 -227 c75 -28 153 -102 189 -180 26 -57 29 -73 29 -173 0 -98 -3 -116 -27 -167 -78 -168 -269 -246 -459 -189 -63 20 -81 31 -134 84 -93 94 -129 212 -105 346 16 87 45 147 100 201 102 102 261 133 407 78z"
       id="path28"
       style="fill:#002a76;fill-opacity:1" />
    <path
       d="M14805 1177 c-102 -34 -177 -87 -231 -163 l-34 -48 0 107 0 107 -120 0 -120 0 0 -580 0 -580 119 0 120 0 3 358 c5 411 6 419 89 502 63 63 134 90 232 90 87 0 143 -23 182 -73 55 -73 58 -99 63 -504 l4 -373 119 0 119 0 0 328 c0 364 6 419 54 491 34 51 108 105 164 121 50 14 156 13 206 -2 58 -18 120 -83 142 -150 16 -46 18 -103 22 -420 l3 -368 120 0 119 0 0 403 c0 330 -3 413 -15 462 -33 127 -105 212 -223 268 -57 27 -79 31 -173 35 -89 4 -119 1 -176 -16 -82 -25 -170 -81 -237 -150 l-50 -51 -27 48 c-35 60 -88 107 -159 139 -46 22 -72 26 -165 29 -72 2 -124 -2 -150 -10z"
       id="path30"
       style="fill:#002a76;fill-opacity:1" />
    <path
       d="M8060 600 l0 -580 125 0 125 0 -2 577 -3 578 -122 3 -123 3 0 -581z"
       id="path32"
       style="fill:#0096ff;fill-opacity:1;opacity:0.99000000000000021" />
    <path
       d="M11088 318 c-47 -12 -103 -73 -112 -121 -15 -79 37 -165 114 -188 74 -22 155 12 190 80 65 129 -50 267 -192 229z"
       id="path34"
       style="fill:#002a76;fill-opacity:1" />
  </g>
</svg>
